<svg version="1.1" id="Layer_1" xmlns="http://www.w3.org/2000/svg" xmlns:xlink="http://www.w3.org/1999/xlink" x="0px" y="0px"
	 width="100%" viewBox="0 0 250 420" enable-background="new 0 0 250 420" xml:space="preserve">
<path fill="#5A2688" opacity="1.000000" stroke="none" 
	d="
M1.000000,162.000000 
	C1.000000,108.000023 1.000000,54.500038 1.000000,1.000043 
	C84.333282,1.000029 167.666565,1.000029 250.999878,1.000014 
	C250.999924,140.999893 250.999924,280.999786 250.999969,420.999756 
	C167.666794,420.999847 84.333588,420.999847 1.000193,420.999939 
	C1.000000,334.833344 1.000000,248.666672 1.000000,162.000000 
M141.994690,275.577789 
	C142.339706,275.706024 142.684738,275.834290 143.622437,276.374481 
	C147.240952,277.963196 148.543091,275.838043 149.768433,272.904205 
	C150.268631,271.706573 151.893616,270.978699 153.685211,270.077240 
	C158.901688,266.690613 155.086929,262.980042 154.809799,259.227234 
	C155.550247,259.099670 156.290710,258.972107 157.715469,258.863464 
	C159.210464,257.273621 160.705460,255.683792 162.200455,254.093933 
	C160.117126,252.432266 158.033783,250.770615 155.289169,248.818497 
	C148.383865,247.459656 141.481018,246.145401 134.409760,249.861008 
	C134.060547,249.567871 133.711334,249.274734 133.255432,248.321274 
	C132.438705,246.471512 131.621964,244.621765 130.650314,242.379715 
	C129.803909,241.660507 128.940918,240.959686 128.116623,240.215973 
	C127.511421,239.669922 126.956955,239.067673 126.621826,237.852173 
	C126.894165,236.987915 127.166504,236.123672 127.266777,235.169815 
	C127.266777,235.169815 127.180244,235.343460 127.654579,235.102051 
	C127.727715,234.767136 127.800842,234.432205 128.202225,233.367859 
	C129.354309,227.860901 131.263855,222.362808 128.219666,216.273331 
	C126.257126,213.901489 124.481392,210.769989 120.320145,214.298691 
	C119.544044,213.725204 118.767944,213.151718 117.629303,212.103073 
	C115.954353,212.341980 113.638504,211.990387 112.750412,212.954285 
	C111.316124,214.510941 110.821510,216.933380 109.367027,218.585510 
	C106.325600,217.818146 104.084450,218.271500 103.609825,222.615234 
	C101.358620,222.564209 99.107407,222.513184 96.191650,222.683868 
	C90.654381,226.625626 95.425507,230.203888 96.781898,234.055450 
	C95.766548,234.449738 94.870270,234.797791 93.287140,235.163651 
	C90.521156,236.253387 89.215767,237.951752 91.103859,241.548111 
	C93.003067,243.418213 94.902275,245.288330 96.791473,247.533524 
	C96.791473,247.533524 96.807350,247.908401 96.181290,248.185577 
	C94.660576,249.101257 92.995247,249.843292 91.646973,250.966049 
	C87.975769,254.023193 88.425011,256.440033 93.608833,259.115570 
	C95.199226,259.474426 96.789619,259.833313 98.413071,260.199646 
	C93.851364,268.710602 94.272339,270.452515 100.987938,271.802582 
	C101.964775,277.319427 103.003975,277.786102 110.519547,276.205170 
	C110.745476,276.808624 110.971405,277.412109 111.205307,278.671082 
	C115.218979,284.719208 117.876900,279.052032 121.301582,278.225372 
	C122.933632,283.012878 125.881035,282.653351 128.003586,280.896057 
	C131.355850,281.773560 134.120148,283.427612 135.659241,282.651611 
	C137.372910,281.787567 138.047302,278.745697 139.012253,276.579742 
	C139.328003,275.870972 139.137177,274.936523 139.648880,274.295837 
	C140.086807,274.509125 140.524750,274.722382 141.403214,275.212646 
	C141.574585,275.237640 141.745972,275.262665 142.036804,275.137085 
	C142.036804,275.137085 141.886383,275.017365 141.994690,275.577789 
M192.025223,340.021606 
	C192.025223,340.021606 192.015106,339.908600 191.441345,340.142731 
	C191.245621,340.719330 191.049881,341.295959 190.443359,342.280701 
	C190.927017,342.836670 191.410660,343.392609 192.779388,343.957977 
	C197.924347,343.585052 203.067307,343.176849 208.216751,342.882477 
	C208.884674,342.844299 209.601196,343.658875 210.269333,343.621094 
	C212.240936,343.509491 215.871918,343.288452 215.899933,342.898132 
	C216.134277,339.634583 215.705292,336.323395 215.476318,333.026550 
	C214.444794,333.285583 213.381927,333.458466 212.387680,333.820007 
	C209.552094,334.851074 206.821686,336.424622 203.904510,336.908691 
	C200.842926,337.416687 197.868515,339.874878 194.490509,337.855560 
	C194.287125,337.733978 193.491211,338.603638 192.428146,339.107452 
	C192.256180,339.415680 192.084229,339.723938 192.025223,340.021606 
M101.373489,393.084290 
	C101.316406,393.404694 101.259315,393.725098 101.056328,394.757843 
	C101.367874,395.841095 101.679428,396.924377 101.862587,398.613922 
	C101.941246,399.019348 102.019913,399.424774 102.365242,400.258118 
	C102.612778,400.484375 102.860306,400.710663 103.050964,400.945984 
	C103.050964,400.945984 103.091164,400.903534 103.370140,401.434052 
	C105.059166,402.205841 106.715485,403.081360 108.473099,403.635590 
	C108.731796,403.717194 109.471046,402.274780 110.534233,402.183838 
	C111.253242,401.122162 111.972260,400.060516 113.330536,399.457428 
	C114.210457,398.303192 115.090370,397.148926 116.045624,395.338501 
	C115.985687,394.904053 115.925751,394.469635 115.904861,393.512299 
	C115.709450,393.235077 115.514046,392.957886 115.217491,392.035004 
	C114.486443,391.366028 113.755402,390.697052 112.096214,389.931366 
	C109.720749,390.274811 107.345284,390.618225 104.784508,390.945831 
	C104.784508,390.945831 104.355522,390.976105 104.083160,390.350586 
	C103.319336,391.166779 102.555504,391.983002 101.373489,393.084290 
M171.414658,56.310982 
	C171.204758,58.315247 170.104507,61.101475 171.006836,62.128883 
	C172.175385,63.459366 174.940842,63.387310 177.018799,63.919079 
	C177.234314,63.297089 177.449844,62.675098 177.665359,62.053108 
	C176.525055,61.354771 175.384766,60.656437 174.230789,59.316635 
	C174.256165,58.890087 174.281540,58.463543 175.036179,58.039398 
	C179.510895,57.999123 181.050461,60.473804 179.943741,65.672768 
	C183.073898,64.288063 185.210510,63.342884 188.253815,61.996601 
	C185.319000,58.821510 182.979507,56.290497 180.458115,53.562672 
	C181.445557,52.510948 182.432770,51.459476 183.423553,50.404198 
	C179.869507,43.164585 177.598785,42.204998 169.984695,45.005772 
	C170.727188,45.420483 171.266495,45.721706 172.034836,46.904140 
	C172.018982,49.937695 172.003128,52.971249 171.414658,56.310982 
M69.000435,138.172592 
	C69.000435,138.172592 68.997772,137.994720 69.712662,138.195374 
	C70.192139,138.305679 70.671616,138.415985 71.590515,138.717468 
	C71.900902,138.813904 72.218597,138.864609 73.061127,138.466110 
	C76.722054,137.794174 78.922951,135.737213 79.040436,131.897415 
	C79.161560,127.938721 77.303917,125.418068 72.660538,124.219406 
	C71.114731,124.251198 69.568932,124.282990 67.410095,124.259827 
	C66.874931,124.868309 66.339767,125.476799 65.892830,126.725296 
	C65.966904,127.148216 66.040977,127.571144 66.005791,128.864288 
	C65.687241,131.583130 65.368690,134.301971 64.488113,137.031845 
	C61.699345,138.241226 62.964001,139.296661 64.811569,139.503876 
	C66.161850,139.655319 67.628510,138.768967 69.000435,138.172592 
M142.006454,190.017090 
	C142.006454,190.017090 141.993256,189.975754 141.378464,190.263123 
	C135.550888,197.163971 134.107437,205.013382 135.894424,214.567749 
	C138.097076,212.811737 139.595581,211.617096 141.696838,210.068420 
	C146.050323,205.175400 151.196899,200.659012 149.927780,192.378220 
	C149.201675,187.637985 147.826691,186.968567 142.551727,189.171341 
	C142.355545,189.450928 142.159363,189.730515 142.006454,190.017090 
M70.828568,160.828568 
	C70.828568,160.828568 70.772743,160.769394 71.463623,160.844604 
	C72.722939,160.721649 73.982254,160.598694 74.982147,160.501068 
	C75.967598,158.915344 76.899673,157.415497 77.831764,155.915649 
	C78.863670,157.344559 79.895576,158.773468 80.780090,159.998276 
	C80.128761,158.242416 79.356392,156.160278 78.355553,153.462219 
	C77.162949,155.453690 76.542137,156.490356 75.827995,157.682861 
	C74.113838,155.346634 72.658165,153.362671 71.202492,151.378723 
	C70.714485,151.649551 70.226471,151.920364 69.738464,152.191193 
	C70.120667,155.089828 70.502869,157.988480 70.828568,160.828568 
M96.657745,80.275467 
	C96.261024,78.014900 95.864304,75.754341 95.467575,73.493774 
	C93.207069,74.340820 90.947792,75.191147 88.685463,76.033302 
	C87.781776,76.369705 86.871384,76.688087 85.090950,76.985367 
	C84.384598,78.145607 83.104172,79.287979 83.067413,80.469070 
	C82.866745,86.916885 82.971893,93.374214 82.971893,99.879044 
	C84.231117,99.879044 85.504547,99.879044 86.374222,99.879044 
	C86.374222,96.509026 86.374222,93.360535 86.374222,90.072037 
	C94.254013,89.136490 93.635773,101.081100 101.506332,99.882225 
	C99.189865,97.164131 96.786758,94.641647 94.778419,91.836525 
	C94.011536,90.765404 94.148849,89.046913 94.403107,87.158524 
	C95.073479,85.109039 95.743843,83.059547 96.657745,80.275467 
M169.471420,208.540939 
	C168.548645,203.844650 166.320267,202.541092 162.331833,204.485336 
	C160.853851,205.205780 159.505554,206.192261 157.394821,207.021484 
	C150.919540,210.775345 148.615067,217.086517 146.084229,224.976151 
	C151.737061,222.765244 156.306503,221.323929 160.548065,219.221222 
	C164.734833,217.145691 168.327301,214.184418 169.471420,208.540939 
M169.563110,239.728210 
	C169.429260,237.802551 169.295425,235.876907 168.717789,233.293396 
	C159.740448,229.422943 148.958206,233.345779 142.060547,241.423447 
	C145.245926,242.229767 148.226318,243.304047 151.293671,243.693604 
	C157.542038,244.487167 163.878723,245.111374 169.563110,239.728210 
M105.320374,162.386536 
	C107.121277,162.793579 108.950668,163.635803 110.717369,163.520172 
	C114.831772,163.250931 118.910095,162.468124 123.015648,162.005295 
	C124.451836,161.843399 125.926559,161.971527 127.380920,162.032806 
	C130.980057,162.184433 134.725449,161.808197 138.136261,162.699524 
	C141.918823,163.688004 143.500427,161.760544 143.743103,159.063187 
	C143.990616,156.312225 146.967712,152.408264 141.810562,150.752960 
	C137.440964,149.350449 135.949921,150.566345 135.823486,155.201843 
	C135.783783,156.658249 134.863983,158.090668 134.347000,159.534058 
	C133.107010,158.403473 131.601608,157.451904 130.689819,156.099976 
	C129.353516,154.118622 128.442184,151.850632 126.671318,148.372101 
	C124.623466,152.952255 123.155052,156.236450 121.686638,159.520645 
	C121.334770,159.488144 120.982903,159.455627 120.631027,159.423126 
	C120.363792,157.260406 120.096550,155.097702 119.806213,152.748108 
	C115.174431,149.935837 111.368042,151.217163 108.671906,155.429321 
	C107.284935,154.171509 106.132248,153.126175 104.204063,152.004578 
	C102.928040,152.119843 101.652008,152.235123 98.734856,152.498657 
	C101.235886,156.158371 103.136101,158.938934 105.320374,162.386536 
M150.884506,91.078125 
	C148.911072,92.462418 147.591843,93.724564 149.941910,96.175789 
	C151.373260,97.668739 151.942032,99.955864 153.098511,101.757721 
	C153.769943,102.803856 155.567963,104.429970 155.622635,104.382133 
	C158.463181,101.896545 161.478516,103.601776 164.481369,103.620399 
	C167.350388,103.638206 170.530472,102.849457 173.009995,101.430176 
	C175.172531,100.192337 177.833252,97.841660 174.772919,94.113503 
	C175.234268,92.374741 175.962112,90.658356 176.110321,88.893303 
	C176.715912,81.680832 173.323837,77.371094 166.472443,76.471397 
	C163.306152,73.186897 159.161209,72.257164 155.420624,74.132065 
	C153.862411,74.913101 153.844406,78.766930 152.965256,81.935112 
	C152.496643,84.899994 152.028015,87.864883 150.884506,91.078125 
M180.920197,140.993256 
	C181.515472,138.443176 182.991623,138.274536 185.210754,139.124741 
	C188.142136,140.247833 191.334076,139.982193 192.022461,136.577484 
	C192.505783,134.186935 191.934082,130.332047 190.334854,129.137589 
	C188.855499,128.032669 185.078430,129.004745 182.871246,130.143570 
	C180.473785,131.380569 179.289658,131.618896 176.912018,129.833618 
	C174.983246,128.385406 171.680374,128.166245 169.121826,128.484879 
	C168.230270,128.595917 167.654648,131.920807 167.099106,133.825867 
	C166.697067,135.204605 166.566177,136.662445 166.285248,138.249573 
	C171.141815,140.161530 175.486618,140.411896 179.054520,135.860046 
	C179.622375,137.883072 180.049118,139.403336 180.920197,140.993256 
M122.452248,138.249191 
	C126.327843,139.815277 130.203430,141.381363 134.196365,142.994858 
	C137.131348,139.453369 137.972565,136.632217 137.380585,130.858688 
	C137.263489,129.716675 136.710312,127.890213 136.010666,127.707039 
	C134.947052,127.428589 133.579651,128.310547 132.084457,128.780319 
	C132.785294,129.905884 133.181091,130.289352 133.273727,130.735733 
	C133.604126,132.327896 133.906296,133.938187 133.976562,135.552155 
	C133.983246,135.705414 131.675598,136.332382 131.497086,136.056656 
	C130.695251,134.818100 130.229996,133.348465 129.731613,131.931122 
	C129.380020,130.931213 129.414291,129.718109 128.854996,128.882019 
	C126.301758,125.065079 123.691544,127.293655 121.373474,129.147614 
	C118.090218,131.773544 118.310120,134.318726 122.452248,138.249191 
M116.093132,76.075249 
	C115.394394,76.641518 114.098328,77.196648 114.087524,77.775749 
	C113.949997,85.146133 113.996925,92.519966 113.996925,100.175682 
	C115.438347,100.034012 116.802711,99.899910 116.791855,99.900978 
	C116.791855,91.713669 116.791855,84.043999 116.093132,76.075249 
M142.137619,92.840973 
	C140.928055,90.936905 140.008453,88.739662 138.445084,87.193291 
	C135.679764,84.458046 131.526321,82.731537 133.255585,77.322800 
	C129.851532,82.017387 130.321671,84.287590 135.118088,88.459732 
	C138.074463,91.031311 141.641479,93.241714 138.933899,98.449074 
	C139.483276,98.455452 140.032654,98.461830 140.582031,98.468208 
	C141.117432,96.817833 141.652832,95.167458 142.137619,92.840973 
M123.894234,51.627956 
	C123.953407,45.206421 123.953407,45.206421 121.165382,45.010677 
	C121.165382,50.564178 121.165382,56.116272 121.165382,62.226860 
	C124.324493,61.982094 127.137505,61.764149 129.950516,61.546200 
	C129.894928,61.133018 129.839340,60.719833 129.783737,60.306652 
	C127.784019,60.215374 125.784302,60.124096 123.892586,60.037746 
	C123.892586,57.105244 123.892586,54.803925 123.894234,51.627956 
M75.762543,49.025578 
	C74.976524,47.502487 74.190498,45.979397 73.404472,44.456306 
	C72.988457,44.691181 72.572441,44.926056 72.156418,45.160931 
	C73.854179,50.561455 75.551941,55.961975 77.703285,62.805328 
	C78.919395,59.461391 79.648819,57.455688 80.378242,55.449989 
	C80.173828,55.355145 79.969421,55.260296 79.765007,55.165451 
	C79.308502,55.679428 78.852005,56.193405 78.017830,57.132607 
	C77.257416,54.406708 76.604401,52.065784 75.762543,49.025578 
M107.364883,50.221493 
	C106.864708,49.137234 106.364532,48.052971 105.473549,46.121540 
	C103.437202,50.172421 101.856911,53.316082 99.815598,57.376858 
	C105.133820,53.700268 106.192627,54.076984 110.459442,59.645050 
	C109.546051,56.728519 108.632668,53.811993 107.364883,50.221493 
M85.194481,54.544086 
	C86.124413,56.878117 87.054337,59.212151 87.984261,61.546181 
	C88.620132,61.309734 89.256004,61.073292 89.891869,60.836845 
	C87.902908,55.636951 85.913948,50.437061 83.924988,45.237167 
	C83.279846,45.485214 82.634705,45.733257 81.989563,45.981304 
	C82.986290,48.607426 83.983009,51.233551 85.194481,54.544086 
M124.898186,357.675598 
	C121.326622,357.151611 116.704155,360.751343 114.692696,356.323395 
	C112.897255,357.127502 110.806534,358.063843 107.831932,359.396057 
	C115.114433,359.396057 121.522476,359.396057 127.930519,359.396057 
	C128.004700,358.992401 128.078888,358.588745 128.153076,358.185120 
	C127.224663,357.921509 126.296257,357.657898 124.898186,357.675598 
M155.929901,49.044006 
	C155.929901,53.356777 155.929901,57.669544 155.929901,61.982315 
	C156.591660,61.941017 157.253433,61.899719 157.915192,61.858425 
	C157.915192,56.371662 157.915192,50.884903 157.915192,45.398140 
	C157.549011,45.242176 157.182831,45.086208 156.816650,44.930241 
	C156.518616,46.014843 156.220596,47.099442 155.929901,49.044006 
M91.364456,154.493286 
	C90.823509,153.653610 90.282562,152.813919 89.560760,151.693527 
	C87.589493,156.431641 89.934174,161.060028 94.005333,161.108231 
	C93.208344,159.058884 92.436546,157.074326 91.364456,154.493286 
M86.609833,344.567780 
	C88.718834,344.022675 90.827827,343.477570 92.936829,342.932434 
	C92.698677,342.290802 92.460533,341.649170 92.222382,341.007538 
	C90.163658,342.219208 88.104927,343.430878 86.609833,344.567780 
M125.506546,340.740021 
	C126.741043,341.345886 127.975533,341.951721 129.210022,342.557587 
	C129.361237,341.858215 129.512451,341.158813 129.663651,340.459442 
	C128.283325,340.369568 126.902992,340.279694 125.506546,340.740021 
M147.797287,339.285339 
	C147.064087,340.266296 146.330902,341.247284 145.597702,342.228271 
	C145.904953,342.446838 146.212204,342.665405 146.519455,342.883972 
	C147.072510,341.841614 147.625549,340.799225 147.797287,339.285339 
M184.049911,354.637817 
	C183.879593,354.990692 183.709259,355.343567 183.538925,355.696411 
	C183.809860,355.768890 184.080811,355.841339 184.351761,355.913818 
	C184.428650,355.410217 184.505539,354.906586 184.049911,354.637817 
M100.627289,130.708923 
	C100.575546,130.188248 100.523811,129.667557 100.472069,129.146881 
	C100.185242,129.223801 99.898407,129.300705 99.611580,129.377625 
	C99.763092,129.751663 99.914604,130.125687 100.627289,130.708923 
z"/>
<path fill="#5D2A8A" opacity="1.000000" stroke="none" 
	d="
M174.473358,94.809021 
	C177.833252,97.841660 175.172531,100.192337 173.009995,101.430176 
	C170.530472,102.849457 167.350388,103.638206 164.481369,103.620399 
	C161.478516,103.601776 158.463181,101.896545 155.622635,104.382133 
	C155.567963,104.429970 153.769943,102.803856 153.098511,101.757721 
	C151.942032,99.955864 151.373260,97.668739 149.941910,96.175789 
	C147.591843,93.724564 148.911072,92.462418 151.358597,91.265701 
	C153.585632,97.908875 157.979736,100.699638 166.067398,100.053322 
	C164.242905,100.649963 163.855606,100.862221 163.787399,100.786606 
	C160.838516,97.517960 156.516388,94.639511 155.382645,90.817390 
	C154.216537,86.886208 156.164490,82.031303 156.706161,77.912285 
	C155.949249,78.612350 154.537643,79.917938 153.126038,81.223526 
	C153.844406,78.766930 153.862411,74.913101 155.420624,74.132065 
	C159.161209,72.257164 163.306152,73.186897 166.776901,77.078659 
	C171.144791,79.558983 173.151245,82.972992 172.914734,87.199059 
	C172.708115,90.891624 171.527313,94.529671 170.776886,98.191811 
	C171.113083,98.636971 171.449265,99.082138 171.785446,99.527306 
	C172.681412,97.954544 173.577393,96.381783 174.473358,94.809021 
z"/>
<path fill="#602F8C" opacity="1.000000" stroke="none" 
	d="
M104.979561,152.080826 
	C106.132248,153.126175 107.284935,154.171509 108.671906,155.429321 
	C111.368042,151.217163 115.174431,149.935837 119.806213,152.748108 
	C120.096550,155.097702 120.363792,157.260406 120.631027,159.423126 
	C120.982903,159.455627 121.334770,159.488144 121.686638,159.520645 
	C123.155052,156.236450 124.623466,152.952255 126.671318,148.372101 
	C128.442184,151.850632 129.353516,154.118622 130.689819,156.099976 
	C131.601608,157.451904 133.107010,158.403473 134.347000,159.534058 
	C134.863983,158.090668 135.783783,156.658249 135.823486,155.201843 
	C135.949921,150.566345 137.440964,149.350449 141.810562,150.752960 
	C146.967712,152.408264 143.990616,156.312225 143.743103,159.063187 
	C143.500427,161.760544 141.918823,163.688004 138.136261,162.699524 
	C134.725449,161.808197 130.980057,162.184433 127.380920,162.032806 
	C125.926559,161.971527 124.451836,161.843399 123.015648,162.005295 
	C118.910095,162.468124 114.831772,163.250931 110.717369,163.520172 
	C108.950668,163.635803 107.121277,162.793579 105.492508,162.004700 
	C105.436287,158.442184 105.207924,155.261505 104.979561,152.080826 
M112.750595,156.028030 
	C112.521217,156.409515 112.291847,156.791016 112.062477,157.172531 
	C113.081993,157.062866 114.101509,156.953217 115.121025,156.843552 
	C115.069412,156.464005 115.017807,156.084457 114.966202,155.704910 
	C114.381363,155.748322 113.796532,155.791733 112.750595,156.028030 
z"/>
<path fill="#EEAF29" opacity="1.000000" stroke="none" 
	d="
M100.938431,271.018982 
	C94.272339,270.452515 93.851364,268.710602 98.413071,260.199646 
	C96.789619,259.833313 95.199226,259.474426 93.364822,258.722534 
	C92.561401,252.670898 92.710838,252.676346 98.483948,252.864944 
	C101.651451,252.968430 104.840256,252.419769 109.260498,252.065765 
	C105.149544,250.746643 102.525497,249.904648 100.185638,249.007996 
	C100.659729,248.922379 100.849625,248.891449 101.347839,248.799133 
	C102.426010,247.831512 103.195862,246.925308 103.978386,246.008347 
	C103.991051,245.997589 104.009056,245.968597 104.428452,245.988678 
	C107.314026,246.334320 109.777870,246.679031 112.246925,246.981140 
	C116.263802,247.472656 116.964478,249.092896 113.724449,251.946075 
	C110.099335,253.556870 106.744392,255.224792 104.309105,256.435516 
	C106.787895,258.151672 109.923851,260.322784 112.949814,262.742188 
	C112.640556,263.678253 112.441277,264.365967 111.870514,265.115967 
	C107.978844,267.125153 104.458641,269.072083 100.938431,271.018982 
z"/>
<path fill="#F1BE37" opacity="1.000000" stroke="none" 
	d="
M134.859406,249.942566 
	C141.481018,246.145401 148.383865,247.459656 155.378860,249.080795 
	C154.380234,249.426346 153.291901,249.509598 151.472015,249.648804 
	C153.368378,251.248428 154.762848,252.424698 156.420731,253.823151 
	C154.753387,254.084717 153.561005,254.271774 152.081955,254.503799 
	C153.962769,256.153381 155.496964,257.498962 157.031158,258.844543 
	C156.290710,258.972107 155.550247,259.099670 154.038361,259.219238 
	C149.357285,258.121338 145.447662,257.031433 141.538025,255.941498 
	C141.409027,256.207397 141.280014,256.473297 141.151016,256.739227 
	C144.132370,258.488403 147.113724,260.237610 150.223785,262.170197 
	C150.542831,262.586548 150.759613,262.791534 151.009155,262.978943 
	C151.015472,262.989319 151.043747,262.978729 150.984573,263.268158 
	C149.802109,265.606537 151.026505,270.259033 145.996338,267.707581 
	C145.674911,266.703735 145.366867,265.982574 145.058823,265.261383 
	C144.852585,265.378571 144.646347,265.495789 144.440109,265.612976 
	C144.957748,266.409973 145.475388,267.206970 145.978790,268.363770 
	C145.008530,269.750397 144.052490,270.777191 142.999039,271.485168 
	C141.289444,268.762787 139.677277,266.359222 138.341431,263.830444 
	C141.253967,260.022797 136.323837,259.266418 135.996338,256.434814 
	C137.954407,253.609833 138.066940,251.452606 134.859406,249.942566 
z"/>
<path fill="#714491" opacity="1.000000" stroke="none" 
	d="
M180.698029,140.958435 
	C180.049118,139.403336 179.622375,137.883072 179.054520,135.860046 
	C175.486618,140.411896 171.141815,140.161530 166.285248,138.249573 
	C166.566177,136.662445 166.697067,135.204605 167.099106,133.825867 
	C167.654648,131.920807 168.230270,128.595917 169.121826,128.484879 
	C171.680374,128.166245 174.983246,128.385406 176.912018,129.833618 
	C179.289658,131.618896 180.473785,131.380569 182.871246,130.143570 
	C185.078430,129.004745 188.855499,128.032669 190.334854,129.137589 
	C191.934082,130.332047 192.505783,134.186935 192.022461,136.577484 
	C191.334076,139.982193 188.142136,140.247833 185.210754,139.124741 
	C182.991623,138.274536 181.515472,138.443176 180.698029,140.958435 
M173.305283,134.740311 
	C173.096069,135.026855 172.878220,135.308136 172.694305,135.610092 
	C172.679840,135.633881 172.901550,135.801514 173.013504,135.902283 
	C173.201050,135.597168 173.388611,135.292053 173.305283,134.740311 
M168.823746,133.312210 
	C168.947723,133.139313 169.071701,132.966400 169.195694,132.793488 
	C169.013992,132.902649 168.832291,133.011795 168.823746,133.312210 
M169.521515,130.522751 
	C169.521515,130.522751 169.468033,130.545197 169.521515,130.522751 
z"/>
<path fill="#EEC03E" opacity="1.000000" stroke="none" 
	d="
M168.993973,240.088028 
	C163.878723,245.111374 157.542038,244.487167 151.293671,243.693604 
	C148.226318,243.304047 145.245926,242.229767 142.060547,241.423447 
	C148.958206,233.345779 159.740448,229.422943 168.540634,233.615234 
	C166.509277,234.066223 164.655060,234.195374 162.067688,234.375626 
	C163.210068,237.001785 163.965134,238.737579 164.552567,240.088028 
	C166.412292,240.088028 167.703125,240.088028 168.993973,240.088028 
z"/>
<path fill="#F2CB3E" opacity="1.000000" stroke="none" 
	d="
M135.930298,256.755676 
	C136.323837,259.266418 141.253967,260.022797 138.105774,263.721008 
	C137.281815,264.413696 136.520996,265.322601 136.731339,265.729309 
	C138.017654,268.216614 139.524170,270.590027 140.991791,273.249268 
	C141.047073,273.662659 141.067856,273.828186 141.053894,274.228760 
	C141.019165,274.463806 140.962677,274.935669 140.962677,274.935669 
	C140.524750,274.722382 140.086807,274.509125 139.226990,273.905548 
	C136.296997,269.862457 133.788895,266.209656 131.280792,262.556854 
	C130.945099,262.681824 130.609406,262.806763 130.273712,262.931732 
	C130.273712,267.033966 130.273712,271.136230 130.273712,274.483032 
	C126.828926,273.897644 123.948853,273.408203 121.072495,272.492615 
	C120.719429,269.409149 120.362656,266.751770 119.933075,263.766266 
	C119.537170,262.599304 119.214073,261.760529 119.195511,260.732147 
	C123.298096,259.833557 127.096146,259.124573 130.894196,258.415558 
	C130.872070,258.567627 130.849945,258.719696 130.827820,258.871765 
	C132.528641,258.166412 134.229477,257.461029 135.930298,256.755676 
M135.188232,260.988922 
	C135.236588,260.743805 135.284927,260.498657 135.333282,260.253510 
	C135.084488,260.230194 134.835693,260.206879 134.586899,260.183563 
	C134.691010,260.433594 134.795135,260.683624 135.188232,260.988922 
M124.496880,270.474945 
	C124.496880,270.474945 124.506920,270.512604 124.496880,270.474945 
z"/>
<path fill="#EFB835" opacity="1.000000" stroke="none" 
	d="
M128.395706,216.808884 
	C131.263855,222.362808 129.354309,227.860901 127.893082,233.920670 
	C127.408157,234.744339 127.273590,235.034332 127.180244,235.343460 
	C127.180244,235.343460 127.266777,235.169815 127.021599,235.224213 
	C124.910995,235.006516 123.045570,234.734421 121.428368,234.498520 
	C120.214516,235.996552 119.067635,237.411942 117.976135,238.559799 
	C117.017113,236.842148 116.002701,235.392014 115.081223,233.631622 
	C117.284386,230.066010 121.996300,226.753967 118.974144,222.886932 
	C115.985764,219.063110 117.491341,216.059753 117.991837,212.578217 
	C118.767944,213.151718 119.544044,213.725204 120.762695,214.636993 
	C122.950607,216.890717 124.695961,218.806137 127.061546,221.402206 
	C127.779961,218.928818 128.087830,217.868851 128.395706,216.808884 
M118.500435,232.458206 
	C118.500435,232.458206 118.520805,232.508179 118.500435,232.458206 
z"/>
<path fill="#E89E21" opacity="1.000000" stroke="none" 
	d="
M93.973999,235.145844 
	C94.870270,234.797791 95.766548,234.449738 96.781898,234.055450 
	C95.425507,230.203888 90.654381,226.625626 96.568573,222.969269 
	C99.608833,225.865036 102.272171,228.475403 104.988068,231.135223 
	C105.040627,231.184692 105.257881,231.148010 105.257881,231.148010 
	C105.257881,231.148010 105.100822,230.923279 105.060867,230.642517 
	C105.751053,229.571152 106.481186,228.780533 107.425613,228.137207 
	C108.303368,228.841736 108.966827,229.398956 109.849411,230.164520 
	C110.376732,230.623535 110.684929,230.874237 110.967751,231.317200 
	C110.942375,231.509476 110.901619,231.895218 110.645706,231.987015 
	C110.563629,233.071304 110.737473,234.063782 110.825539,235.298782 
	C109.600426,236.489258 108.461090,237.437225 107.894310,237.908813 
	C109.154579,239.558746 110.063347,240.748505 110.601677,241.783600 
	C106.860336,242.028015 103.489426,242.427078 99.932037,242.972946 
	C97.819542,242.395294 95.893532,241.670822 94.025101,240.615189 
	C96.766685,239.412064 99.450684,238.540085 101.611023,237.838242 
	C99.447746,237.075592 96.710869,236.110718 93.973999,235.145844 
z"/>
<path fill="#ECA526" opacity="1.000000" stroke="none" 
	d="
M121.068787,272.918762 
	C123.948853,273.408203 126.828926,273.897644 130.273712,274.483032 
	C130.273712,271.136230 130.273712,267.033966 130.273712,262.931732 
	C130.609406,262.806763 130.945099,262.681824 131.280792,262.556854 
	C133.788895,266.209656 136.296997,269.862457 138.991562,273.810272 
	C139.137177,274.936523 139.328003,275.870972 139.012253,276.579742 
	C138.047302,278.745697 137.372910,281.787567 135.659241,282.651611 
	C134.120148,283.427612 131.355850,281.773560 128.003586,280.896057 
	C125.881035,282.653351 122.933632,283.012878 121.082832,277.598267 
	C120.932320,275.620331 121.000549,274.269562 121.068787,272.918762 
z"/>
<path fill="#EDC041" opacity="1.000000" stroke="none" 
	d="
M169.060349,209.037003 
	C168.327301,214.184418 164.734833,217.145691 160.548065,219.221222 
	C156.306503,221.323929 151.737061,222.765244 146.084229,224.976151 
	C148.615067,217.086517 150.919540,210.775345 157.672897,207.331848 
	C157.600235,208.832474 157.249496,210.022720 156.898758,211.212982 
	C157.127167,211.603043 157.355560,211.993088 157.583969,212.383148 
	C159.709702,209.837418 161.775391,207.642593 162.803116,212.963593 
	C165.030518,211.565842 167.045425,210.301422 169.060349,209.037003 
z"/>
<path fill="#6C408F" opacity="1.000000" stroke="none" 
	d="
M122.143265,138.021515 
	C118.310120,134.318726 118.090218,131.773544 121.373474,129.147614 
	C123.691544,127.293655 126.301758,125.065079 128.854996,128.882019 
	C129.414291,129.718109 129.380020,130.931213 129.731613,131.931122 
	C130.229996,133.348465 130.695251,134.818100 131.497086,136.056656 
	C131.675598,136.332382 133.983246,135.705414 133.976562,135.552155 
	C133.906296,133.938187 133.604126,132.327896 133.273727,130.735733 
	C133.181091,130.289352 132.785294,129.905884 132.084457,128.780319 
	C133.579651,128.310547 134.947052,127.428589 136.010666,127.707039 
	C136.710312,127.890213 137.263489,129.716675 137.380585,130.858688 
	C137.972565,136.632217 137.131348,139.453369 134.196365,142.994858 
	C130.203430,141.381363 126.327843,139.815277 122.143265,138.021515 
z"/>
<path fill="#64358C" opacity="1.000000" stroke="none" 
	d="
M192.971008,339.012024 
	C193.491211,338.603638 194.287125,337.733978 194.490509,337.855560 
	C197.868515,339.874878 200.842926,337.416687 203.904510,336.908691 
	C206.821686,336.424622 209.552094,334.851074 212.387680,333.820007 
	C213.381927,333.458466 214.444794,333.285583 215.476318,333.026550 
	C215.705292,336.323395 216.134277,339.634583 215.899933,342.898132 
	C215.871918,343.288452 212.240936,343.509491 210.269333,343.621094 
	C209.601196,343.658875 208.884674,342.844299 208.216751,342.882477 
	C203.067307,343.176849 197.924347,343.585052 192.356201,343.687256 
	C191.905563,343.240784 191.878143,343.065094 191.932663,342.511658 
	C192.014755,341.392120 192.014923,340.650360 192.015106,339.908600 
	C192.015106,339.908600 192.025223,340.021606 192.283264,340.096741 
	C192.684525,339.785248 192.827759,339.398651 192.971008,339.012024 
M213.914001,336.706268 
	C213.947327,336.895935 213.980652,337.085632 214.013947,337.275299 
	C214.059509,337.088593 214.105057,336.901917 213.914001,336.706268 
M202.496719,340.471069 
	C202.496719,340.471069 202.511566,340.512238 202.496719,340.471069 
z"/>
<path fill="#6C408F" opacity="1.000000" stroke="none" 
	d="
M171.805801,46.022926 
	C171.266495,45.721706 170.727188,45.420483 169.984695,45.005772 
	C177.598785,42.204998 179.869507,43.164585 183.423553,50.404198 
	C182.432770,51.459476 181.445557,52.510948 180.458115,53.562672 
	C182.979507,56.290497 185.319000,58.821510 188.253815,61.996601 
	C185.210510,63.342884 183.073898,64.288063 179.943741,65.672768 
	C181.050461,60.473804 179.510895,57.999123 174.588684,57.713009 
	C174.125122,53.839516 174.159760,50.290039 173.994324,46.749916 
	C173.981445,46.474098 172.568192,46.263721 171.805801,46.022926 
z"/>
<path fill="#EEC03E" opacity="1.000000" stroke="none" 
	d="
M141.094055,210.422455 
	C139.595581,211.617096 138.097076,212.811737 135.894424,214.567749 
	C134.107437,205.013382 135.550888,197.163971 141.701553,190.451233 
	C142.014328,191.082123 142.004013,191.524902 141.726349,192.179413 
	C140.683792,194.172333 139.908600,195.953537 139.133392,197.734741 
	C139.653015,197.947113 140.172653,198.159485 140.692276,198.371872 
	C141.460266,196.914581 142.228256,195.457275 142.998123,193.999695 
	C143.000000,193.999390 143.002884,194.002594 143.063553,194.307907 
	C143.749863,196.744812 144.375519,198.876389 145.000275,201.003693 
	C144.999390,200.999390 145.007965,200.997604 144.707367,201.047073 
	C142.831619,201.096542 141.256485,201.096542 139.681335,201.096542 
	C139.657181,201.544220 139.633041,201.991898 139.608887,202.439575 
	C141.076447,202.634872 142.544022,202.830185 143.903076,203.318344 
	C142.894409,205.881607 141.994232,208.152023 141.094055,210.422455 
z"/>
<path fill="#DC781D" opacity="1.000000" stroke="none" 
	d="
M135.996338,256.434814 
	C134.229477,257.461029 132.528641,258.166412 130.827820,258.871765 
	C130.849945,258.719696 130.872070,258.567627 130.894196,258.415558 
	C127.096146,259.124573 123.298096,259.833557 118.914093,260.893250 
	C116.907761,262.873352 115.487373,264.502777 113.820190,266.022461 
	C113.129578,265.626404 112.685783,265.340057 112.241989,265.053711 
	C112.441277,264.365967 112.640556,263.678253 113.282181,262.574280 
	C115.187347,259.355896 116.650177,256.553711 117.943649,253.483887 
	C117.551064,252.420197 117.327820,251.624146 117.437805,250.878357 
	C118.441246,250.990921 119.111443,251.053253 119.815735,251.137314 
	C119.849815,251.159027 119.894707,251.091812 119.927437,251.426086 
	C120.981300,256.157715 124.706566,255.735474 127.743950,255.588120 
	C128.977982,255.528244 130.109818,253.361847 131.576843,251.993347 
	C132.364395,250.882355 132.863251,249.931976 133.362106,248.981598 
	C133.711334,249.274734 134.060547,249.567871 134.634583,249.901794 
	C138.066940,251.452606 137.954407,253.609833 135.996338,256.434814 
z"/>
<path fill="#F3EDF5" opacity="1.000000" stroke="none" 
	d="
M93.874100,87.623436 
	C94.148849,89.046913 94.011536,90.765404 94.778419,91.836525 
	C96.786758,94.641647 99.189865,97.164131 101.506332,99.882225 
	C93.635773,101.081100 94.254013,89.136490 86.374222,90.072037 
	C86.374222,93.360535 86.374222,96.509026 86.374222,99.879044 
	C85.504547,99.879044 84.231117,99.879044 82.971893,99.879044 
	C82.971893,93.374214 82.866745,86.916885 83.067413,80.469070 
	C83.104172,79.287979 84.384598,78.145607 85.543198,77.459755 
	C85.995453,81.467216 85.995453,85.000282 85.995453,89.917259 
	C89.015625,88.691528 91.077820,87.854599 93.267426,87.112381 
	C93.561569,87.337852 93.721321,87.476631 93.874100,87.623436 
z"/>
<path fill="#602F8C" opacity="1.000000" stroke="none" 
	d="
M93.140015,87.017670 
	C91.077820,87.854599 89.015625,88.691528 85.995453,89.917259 
	C85.995453,85.000282 85.995453,81.467216 85.979752,77.474403 
	C86.871384,76.688087 87.781776,76.369705 88.685463,76.033302 
	C90.947792,75.191147 93.207069,74.340820 95.467575,73.493774 
	C95.864304,75.754341 96.261024,78.014900 96.385605,80.296570 
	C94.548080,78.945343 92.982697,77.573006 91.417305,76.200676 
	C91.115593,76.559708 90.813873,76.918739 90.512161,77.277771 
	C93.915276,80.739265 94.122696,81.508049 93.140015,87.017670 
z"/>
<path fill="#EAAB26" opacity="1.000000" stroke="none" 
	d="
M117.810570,212.340652 
	C117.491341,216.059753 115.985764,219.063110 118.974144,222.886932 
	C121.996300,226.753967 117.284386,230.066010 114.885124,233.408340 
	C114.069946,232.650208 113.543816,231.805099 113.010422,230.736511 
	C113.003166,230.513046 112.999779,230.065887 113.000076,229.693634 
	C113.619064,227.158813 114.237755,224.996277 114.930283,222.575623 
	C113.476494,221.533173 111.703262,220.261673 109.930038,218.990158 
	C110.821510,216.933380 111.316124,214.510941 112.750412,212.954285 
	C113.638504,211.990387 115.954353,212.341980 117.810570,212.340652 
z"/>
<path fill="#E89E21" opacity="1.000000" stroke="none" 
	d="
M117.104584,250.828110 
	C117.327820,251.624146 117.551064,252.420197 117.578705,253.545166 
	C116.253609,253.250488 115.124107,252.626862 113.994614,252.003220 
	C116.964478,249.092896 116.263802,247.472656 112.246925,246.981140 
	C109.777870,246.679031 107.314026,246.334320 104.327164,245.701416 
	C103.207642,244.572281 102.608795,243.750458 102.355743,242.862411 
	C105.508095,243.284027 108.301949,243.896378 111.128853,244.184845 
	C111.992256,244.272964 112.946503,243.470917 113.986008,242.752197 
	C114.720078,241.155289 115.327286,239.882736 116.265305,238.653107 
	C117.037659,238.739792 117.479202,238.783554 117.920746,238.827316 
	C119.067635,237.411942 120.214516,235.996552 121.428368,234.498520 
	C123.045570,234.734421 124.910995,235.006516 127.107635,235.269012 
	C127.166504,236.123672 126.894165,236.987915 126.249969,238.347382 
	C123.007080,240.383972 120.136032,241.925354 118.355690,242.881180 
	C117.830643,246.216263 117.467621,248.522186 117.104584,250.828110 
z"/>
<path fill="#F2B82E" opacity="1.000000" stroke="none" 
	d="
M114.067001,266.132202 
	C115.487373,264.502777 116.907761,262.873352 118.609558,261.082825 
	C119.214073,261.760529 119.537170,262.599304 119.916321,264.159729 
	C119.338287,267.654236 118.704193,270.427124 117.928848,273.349548 
	C117.861633,274.006500 117.935669,274.513916 117.874687,275.285522 
	C116.646873,275.935333 115.547287,276.302948 114.463188,276.711639 
	C113.366570,277.125061 112.285309,277.579224 111.197327,278.015564 
	C110.971405,277.412109 110.745476,276.808624 110.262177,275.648621 
	C111.358871,272.105438 112.712936,269.118805 114.067001,266.132202 
z"/>
<path fill="#2A1F40" opacity="1.000000" stroke="none" 
	d="
M133.308777,248.651428 
	C132.863251,249.931976 132.364395,250.882355 131.375641,251.791122 
	C127.222054,251.530273 123.558380,251.311035 119.894707,251.091812 
	C119.894707,251.091812 119.849815,251.159027 119.994629,250.878937 
	C120.717003,249.616333 121.615219,248.695511 121.818184,247.640900 
	C122.852692,242.265366 126.077301,241.194046 130.805237,242.772003 
	C131.621964,244.621765 132.438705,246.471512 133.308777,248.651428 
z"/>
<path fill="#E9E2EF" opacity="1.000000" stroke="none" 
	d="
M153.045654,81.579323 
	C154.537643,79.917938 155.949249,78.612350 156.706161,77.912285 
	C156.164490,82.031303 154.216537,86.886208 155.382645,90.817390 
	C156.516388,94.639511 160.838516,97.517960 163.787399,100.786606 
	C163.855606,100.862221 164.242905,100.649963 166.067398,100.053322 
	C157.979736,100.699638 153.585632,97.908875 151.696045,91.141525 
	C152.028015,87.864883 152.496643,84.899994 153.045654,81.579323 
z"/>
<path fill="#E3991A" opacity="1.000000" stroke="none" 
	d="
M109.648529,218.787842 
	C111.703262,220.261673 113.476494,221.533173 114.930283,222.575623 
	C114.237755,224.996277 113.619064,227.158813 112.675064,229.665451 
	C111.915314,229.992783 111.480881,229.976028 110.692429,229.947083 
	C110.102371,229.941971 109.866333,229.949081 109.630287,229.956192 
	C108.966827,229.398956 108.303368,228.841736 107.294998,227.815704 
	C105.980377,225.590317 105.010666,223.833725 104.040955,222.077133 
	C104.084450,218.271500 106.325600,217.818146 109.648529,218.787842 
z"/>
<path fill="#E6A31F" opacity="1.000000" stroke="none" 
	d="
M113.820190,266.022461 
	C112.712936,269.118805 111.358871,272.105438 109.992912,275.466583 
	C103.003975,277.786102 101.964775,277.319427 100.963188,271.410767 
	C104.458641,269.072083 107.978844,267.125153 111.870514,265.115967 
	C112.685783,265.340057 113.129578,265.626404 113.820190,266.022461 
z"/>
<path fill="#E9E2EF" opacity="1.000000" stroke="none" 
	d="
M116.442490,76.224792 
	C116.791855,84.043999 116.791855,91.713669 116.791855,99.900978 
	C116.802711,99.899910 115.438347,100.034012 113.996925,100.175682 
	C113.996925,92.519966 113.949997,85.146133 114.087524,77.775749 
	C114.098328,77.196648 115.394394,76.641518 116.442490,76.224792 
z"/>
<path fill="#ECA526" opacity="1.000000" stroke="none" 
	d="
M169.265884,208.788971 
	C167.045425,210.301422 165.030518,211.565842 162.803116,212.963593 
	C161.775391,207.642593 159.709702,209.837418 157.583969,212.383148 
	C157.355560,211.993088 157.127167,211.603043 156.898758,211.212982 
	C157.249496,210.022720 157.600235,208.832474 158.024536,207.349823 
	C159.505554,206.192261 160.853851,205.205780 162.331833,204.485336 
	C166.320267,202.541092 168.548645,203.844650 169.265884,208.788971 
z"/>
<path fill="#EEE7F3" opacity="1.000000" stroke="none" 
	d="
M142.162933,93.179031 
	C141.652832,95.167458 141.117432,96.817833 140.582031,98.468208 
	C140.032654,98.461830 139.483276,98.455452 138.933899,98.449074 
	C141.641479,93.241714 138.074463,91.031311 135.118088,88.459732 
	C130.321671,84.287590 129.851532,82.017387 133.255585,77.322800 
	C131.526321,82.731537 135.679764,84.458046 138.445084,87.193291 
	C140.008453,88.739662 140.928055,90.936905 142.162933,93.179031 
z"/>
<path fill="#E89E21" opacity="1.000000" stroke="none" 
	d="
M141.088638,273.993683 
	C141.067856,273.828186 141.047073,273.662659 141.267792,273.117981 
	C142.038376,272.427246 142.567413,272.115631 143.096451,271.804016 
	C144.052490,270.777191 145.008530,269.750397 145.982666,268.361450 
	C146.000763,267.999298 146.009735,267.990234 146.009735,267.990234 
	C151.026505,270.259033 149.802109,265.606537 151.337738,263.333374 
	C155.485428,264.816833 153.646805,267.535706 153.006866,270.037109 
	C151.893616,270.978699 150.268631,271.706573 149.768433,272.904205 
	C148.543091,275.838043 147.240952,277.963196 143.142075,276.000793 
	C142.406479,275.419739 142.148041,275.216522 141.886383,275.017365 
	C141.886383,275.017365 142.036804,275.137085 141.858887,274.982544 
	C141.483521,274.549866 141.286087,274.271790 141.088638,273.993683 
z"/>
<path fill="#DE8C1A" opacity="1.000000" stroke="none" 
	d="
M99.901459,249.062653 
	C102.525497,249.904648 105.149544,250.746643 109.260498,252.065765 
	C104.840256,252.419769 101.651451,252.968430 98.483948,252.864944 
	C92.710838,252.676346 92.561401,252.670898 93.034088,258.575867 
	C88.425011,256.440033 87.975769,254.023193 91.646973,250.966049 
	C92.995247,249.843292 94.660576,249.101257 96.773506,248.232819 
	C98.214752,248.523209 99.063789,248.766373 99.910484,249.022003 
	C99.908150,249.034454 99.901459,249.062637 99.901459,249.062653 
z"/>
<path fill="#EEE7F3" opacity="1.000000" stroke="none" 
	d="
M174.623138,94.461258 
	C173.577393,96.381783 172.681412,97.954544 171.785446,99.527306 
	C171.449265,99.082138 171.113083,98.636971 170.776886,98.191811 
	C171.527313,94.529671 172.708115,90.891624 172.914734,87.199059 
	C173.151245,82.972992 171.144791,79.558983 167.015930,77.335968 
	C173.323837,77.371094 176.715912,81.680832 176.110321,88.893303 
	C175.962112,90.658356 175.234268,92.374741 174.623138,94.461258 
z"/>
<path fill="#AC95C4" opacity="1.000000" stroke="none" 
	d="
M123.893410,52.065277 
	C123.892586,54.803925 123.892586,57.105244 123.892586,60.037746 
	C125.784302,60.124096 127.784019,60.215374 129.783737,60.306652 
	C129.839340,60.719833 129.894928,61.133018 129.950516,61.546200 
	C127.137505,61.764149 124.324493,61.982094 121.165382,62.226860 
	C121.165382,56.116272 121.165382,50.564178 121.165382,45.010677 
	C123.953407,45.206421 123.953407,45.206421 123.893410,52.065277 
z"/>
<path fill="#5F201D" opacity="1.000000" stroke="none" 
	d="
M130.727783,242.575867 
	C126.077301,241.194046 122.852692,242.265366 121.818184,247.640900 
	C121.615219,248.695511 120.717003,249.616333 119.960541,250.857224 
	C119.111443,251.053253 118.441246,250.990921 117.437820,250.878357 
	C117.467621,248.522186 117.830643,246.216263 118.355690,242.881180 
	C120.136032,241.925354 123.007080,240.383972 126.128998,238.666534 
	C126.956955,239.067673 127.511421,239.669922 128.116623,240.215973 
	C128.940918,240.959686 129.803909,241.660507 130.727783,242.575867 
z"/>
<path fill="#E89E21" opacity="1.000000" stroke="none" 
	d="
M157.373322,258.854004 
	C155.496964,257.498962 153.962769,256.153381 152.081955,254.503799 
	C153.561005,254.271774 154.753387,254.084717 156.420731,253.823151 
	C154.762848,252.424698 153.368378,251.248428 151.472015,249.648804 
	C153.291901,249.509598 154.380234,249.426346 155.709503,249.226013 
	C158.033783,250.770615 160.117126,252.432266 162.200470,254.093933 
	C160.705460,255.683792 159.210464,257.273621 157.373322,258.854004 
z"/>
<path fill="#DAC5BE" opacity="1.000000" stroke="none" 
	d="
M70.885063,160.887115 
	C70.502869,157.988480 70.120667,155.089828 69.738464,152.191193 
	C70.226471,151.920364 70.714485,151.649551 71.202492,151.378723 
	C72.658165,153.362671 74.113838,155.346634 75.827995,157.682861 
	C76.542137,156.490356 77.162949,155.453690 78.355553,153.462219 
	C79.356392,156.160278 80.128761,158.242416 80.780090,159.998276 
	C79.895576,158.773468 78.863670,157.344559 77.831757,155.915649 
	C76.899673,157.415497 75.967598,158.915344 74.982147,160.501068 
	C73.982254,160.598694 72.722939,160.721649 71.596069,160.986130 
	C75.470016,159.378265 72.229988,158.048462 71.186790,156.550964 
	C71.086212,157.996338 70.985641,159.441727 70.885063,160.887115 
z"/>
<path fill="#E2D5E6" opacity="1.000000" stroke="none" 
	d="
M75.856964,49.375217 
	C76.604401,52.065784 77.257416,54.406708 78.017830,57.132607 
	C78.852005,56.193405 79.308502,55.679428 79.765007,55.165451 
	C79.969421,55.260296 80.173828,55.355145 80.378242,55.449989 
	C79.648819,57.455688 78.919395,59.461391 77.703285,62.805328 
	C75.551941,55.961975 73.854179,50.561455 72.156418,45.160931 
	C72.572441,44.926056 72.988457,44.691181 73.404472,44.456306 
	C74.190498,45.979397 74.976524,47.502487 75.856964,49.375217 
z"/>
<path fill="#E89E21" opacity="1.000000" stroke="none" 
	d="
M111.201317,278.343323 
	C112.285309,277.579224 113.366570,277.125061 114.463188,276.711639 
	C115.547287,276.302948 116.646873,275.935333 117.870773,275.276489 
	C118.001884,275.003235 118.009453,275.005371 118.100830,274.869843 
	C118.290337,274.400269 118.237144,274.085663 118.042870,273.643005 
	C118.053085,273.495422 118.070099,273.200012 118.070099,273.200012 
	C118.704193,270.427124 119.338287,267.654236 119.989128,264.487885 
	C120.362656,266.751770 120.719429,269.409149 121.072495,272.492615 
	C121.000549,274.269562 120.932320,275.620331 120.939636,277.253479 
	C117.876900,279.052032 115.218979,284.719208 111.201317,278.343323 
z"/>
<path fill="#E9E2EF" opacity="1.000000" stroke="none" 
	d="
M107.542084,50.558479 
	C108.632668,53.811993 109.546051,56.728519 110.459442,59.645050 
	C106.192627,54.076984 105.133820,53.700268 99.815598,57.376858 
	C101.856911,53.316082 103.437202,50.172421 105.473549,46.121540 
	C106.364532,48.052971 106.864708,49.137234 107.542084,50.558479 
z"/>
<path fill="#DE8C1A" opacity="1.000000" stroke="none" 
	d="
M153.346039,270.057190 
	C153.646805,267.535706 155.485428,264.816833 151.396912,263.043945 
	C151.043747,262.978729 151.015472,262.989319 150.877060,262.798157 
	C150.546738,262.376801 150.332214,262.170074 150.095062,261.986816 
	C147.113724,260.237610 144.132370,258.488403 141.151016,256.739227 
	C141.280014,256.473297 141.409027,256.207397 141.538025,255.941498 
	C145.447662,257.031433 149.357285,258.121338 153.668091,259.290527 
	C155.086929,262.980042 158.901688,266.690613 153.346039,270.057190 
z"/>
<path fill="#EDB92C" opacity="1.000000" stroke="none" 
	d="
M103.825394,222.346191 
	C105.010666,223.833725 105.980377,225.590317 107.080704,227.668396 
	C106.481186,228.780533 105.751053,229.571152 105.018311,230.681885 
	C105.015701,231.001999 104.935516,231.085754 104.935516,231.085754 
	C102.272171,228.475403 99.608833,225.865036 96.900848,222.858429 
	C99.107407,222.513184 101.358620,222.564209 103.825394,222.346191 
z"/>
<path fill="#E2D5E6" opacity="1.000000" stroke="none" 
	d="
M85.087112,54.201881 
	C83.983009,51.233551 82.986290,48.607426 81.989563,45.981304 
	C82.634705,45.733257 83.279846,45.485214 83.924988,45.237167 
	C85.913948,50.437061 87.902908,55.636951 89.891869,60.836845 
	C89.256004,61.073292 88.620132,61.309734 87.984261,61.546181 
	C87.054337,59.212151 86.124413,56.878117 85.087112,54.201881 
z"/>
<path fill="#DAC5BE" opacity="1.000000" stroke="none" 
	d="
M104.591812,152.042694 
	C105.207924,155.261505 105.436287,158.442184 105.350479,161.671173 
	C103.136101,158.938934 101.235886,156.158371 98.734856,152.498657 
	C101.652008,152.235123 102.928040,152.119843 104.591812,152.042694 
z"/>
<path fill="#E2D1C2" opacity="1.000000" stroke="none" 
	d="
M73.346886,124.582703 
	C77.303917,125.418068 79.161560,127.938721 79.040436,131.897415 
	C78.922951,135.737213 76.722054,137.794174 72.604340,138.488480 
	C71.815399,138.515991 71.483246,138.521133 71.151093,138.526276 
	C70.671616,138.415985 70.192139,138.305679 69.394348,137.787247 
	C69.100273,137.173691 69.124512,136.968277 69.546036,136.865356 
	C71.704041,136.266083 74.341843,136.052795 75.056976,134.768723 
	C77.009811,131.262329 75.870018,127.879250 72.938080,125.077560 
	C73.074883,124.913048 73.346886,124.582703 73.346886,124.582703 
z"/>
<path fill="#E89E21" opacity="1.000000" stroke="none" 
	d="
M141.993713,191.967682 
	C142.004013,191.524902 142.014328,191.082123 142.008942,190.307556 
	C141.993256,189.975754 142.006454,190.017090 142.195587,189.884552 
	C142.649582,189.550232 142.875076,189.311295 143.061188,189.035202 
	C147.826691,186.968567 149.201675,187.637985 149.748108,192.814392 
	C149.332947,193.458618 149.137909,193.699997 148.716721,194.031647 
	C146.634369,194.059952 144.818619,194.031265 143.002884,194.002594 
	C143.002884,194.002594 143.000000,193.999390 142.872345,193.746262 
	C142.494370,192.984650 142.244049,192.476166 141.993713,191.967682 
z"/>
<path fill="#E6A31F" opacity="1.000000" stroke="none" 
	d="
M102.009949,242.928635 
	C102.608795,243.750458 103.207642,244.572281 103.907776,245.681351 
	C104.009056,245.968597 103.991051,245.997589 103.674240,246.090729 
	C102.584793,247.076080 101.812157,247.968307 101.039520,248.860535 
	C100.849625,248.891449 100.659729,248.922379 100.185638,249.007980 
	C99.901459,249.062637 99.908150,249.034454 99.729370,248.761703 
	C98.634224,248.045441 97.717857,247.601929 96.801491,247.158432 
	C94.902275,245.288330 93.003067,243.418213 91.352684,241.230469 
	C92.067398,240.931229 92.533295,240.949661 93.112007,241.044418 
	C93.224831,241.120758 93.615677,241.159348 93.615677,241.159348 
	C93.615677,241.159348 93.968933,240.973557 93.975670,240.974152 
	C93.982407,240.974731 93.967522,240.946350 93.967522,240.946350 
	C95.893532,241.670822 97.819542,242.395294 100.245331,242.990280 
	C101.166725,242.883423 101.588333,242.906036 102.009949,242.928635 
z"/>
<path fill="#E89E21" opacity="1.000000" stroke="none" 
	d="
M169.278534,239.908112 
	C167.703125,240.088028 166.412292,240.088028 164.552567,240.088028 
	C163.965134,238.737579 163.210068,237.001785 162.067688,234.375626 
	C164.655060,234.195374 166.509277,234.066223 168.762527,233.944153 
	C169.295425,235.876907 169.429260,237.802551 169.278534,239.908112 
z"/>
<path fill="#AC95C4" opacity="1.000000" stroke="none" 
	d="
M125.133018,357.534943 
	C126.296257,357.657898 127.224663,357.921509 128.153076,358.185120 
	C128.078888,358.588745 128.004700,358.992401 127.930519,359.396057 
	C121.522476,359.396057 115.114433,359.396057 107.831932,359.396057 
	C110.806534,358.063843 112.897255,357.127502 114.692696,356.323395 
	C116.704155,360.751343 121.326622,357.151611 125.133018,357.534943 
z"/>
<path fill="#F2CB3E" opacity="1.000000" stroke="none" 
	d="
M148.983337,193.974686 
	C149.137909,193.699997 149.332947,193.458618 149.678329,193.140106 
	C151.196899,200.659012 146.050323,205.175400 141.395447,210.245438 
	C141.994232,208.152023 142.894409,205.881607 144.078262,203.092163 
	C144.577286,202.047958 144.792618,201.522781 145.007965,200.997604 
	C145.007965,200.997604 144.999390,200.999390 145.287201,200.817780 
	C146.711105,198.415680 147.847214,196.195190 148.983337,193.974686 
z"/>
<path fill="#E6A31F" opacity="1.000000" stroke="none" 
	d="
M128.307678,216.541107 
	C128.087830,217.868851 127.779961,218.928818 127.061546,221.402206 
	C124.695961,218.806137 122.950607,216.890717 121.111526,214.738831 
	C124.481392,210.769989 126.257126,213.901489 128.307678,216.541107 
z"/>
<path fill="#F2E9CA" opacity="1.000000" stroke="none" 
	d="
M69.148743,136.762848 
	C69.124512,136.968277 69.100273,137.173691 69.036896,137.686920 
	C68.997772,137.994720 69.000435,138.172592 68.659782,138.162476 
	C67.229469,137.775162 66.139809,137.397980 65.050148,137.020813 
	C65.368690,134.301971 65.687241,131.583130 66.163177,128.235321 
	C66.148582,127.099319 65.976593,126.592300 65.804611,126.085281 
	C66.339767,125.476799 66.874931,124.868309 67.884018,124.447319 
	C68.602280,124.831764 68.875847,124.971550 69.090393,125.487564 
	C68.924797,128.278122 68.847443,130.635300 68.691757,133.108337 
	C68.523399,133.511124 68.571793,133.772034 68.817230,134.349808 
	C68.966820,135.382736 69.057777,136.072800 69.148743,136.762848 
z"/>
<path fill="#E2D5E6" opacity="1.000000" stroke="none" 
	d="
M171.920319,46.463531 
	C172.568192,46.263721 173.981445,46.474098 173.994324,46.749916 
	C174.159760,50.290039 174.125122,53.839516 174.224060,57.711807 
	C174.281540,58.463543 174.256165,58.890087 174.130051,60.014542 
	C173.393036,60.720879 172.204880,60.779099 172.200500,60.730537 
	C172.058990,59.161644 172.031677,57.582455 171.987259,56.004803 
	C172.003128,52.971249 172.018982,49.937695 171.920319,46.463531 
z"/>
<path fill="#F3EDF5" opacity="1.000000" stroke="none" 
	d="
M155.926239,48.614021 
	C156.220596,47.099442 156.518616,46.014843 156.816650,44.930241 
	C157.182831,45.086208 157.549011,45.242176 157.915192,45.398140 
	C157.915192,50.884903 157.915192,56.371662 157.915192,61.858425 
	C157.253433,61.899719 156.591660,61.941017 155.929901,61.982315 
	C155.929901,57.669544 155.929901,53.356777 155.926239,48.614021 
z"/>
<path fill="#DAC5BE" opacity="1.000000" stroke="none" 
	d="
M91.514603,154.791534 
	C92.436546,157.074326 93.208344,159.058884 94.005333,161.108231 
	C89.934174,161.060028 87.589493,156.431641 89.560760,151.693527 
	C90.282562,152.813919 90.823509,153.653610 91.514603,154.791534 
z"/>
<path fill="#714491" opacity="1.000000" stroke="none" 
	d="
M109.987961,401.537476 
	C109.471046,402.274780 108.731796,403.717194 108.473099,403.635590 
	C106.715485,403.081360 105.059166,402.205841 103.555695,401.061188 
	C104.180244,399.648895 104.619232,398.609436 105.441620,397.720764 
	C107.577553,397.572113 109.330078,397.272644 111.241180,396.836426 
	C111.614281,396.519196 111.806885,396.317780 112.235954,396.044373 
	C112.666748,396.026733 112.839134,396.060120 113.005219,396.358826 
	C113.006996,396.977875 113.015068,397.331573 112.818253,397.885315 
	C112.587181,398.209808 112.517952,398.344086 112.543770,398.456573 
	C112.597427,398.690094 112.701508,398.912048 112.316940,399.328857 
	C111.184769,399.417267 110.520523,399.315521 109.564560,399.161072 
	C108.762344,399.199829 108.251854,399.291351 107.741356,399.382874 
	C107.750336,399.538757 107.759308,399.694672 107.768288,399.850586 
	C108.505058,399.914307 109.241837,399.978058 109.972351,400.415771 
	C109.973396,401.039032 109.980682,401.288269 109.987961,401.537476 
z"/>
<path fill="#6C408F" opacity="1.000000" stroke="none" 
	d="
M171.700958,56.157890 
	C172.031677,57.582455 172.058990,59.161644 172.200500,60.730537 
	C172.204880,60.779099 173.393036,60.720879 174.136887,60.335274 
	C175.384766,60.656437 176.525055,61.354771 177.665359,62.053108 
	C177.449844,62.675098 177.234314,63.297089 177.018799,63.919079 
	C174.940842,63.387310 172.175385,63.459366 171.006836,62.128883 
	C170.104507,61.101475 171.204758,58.315247 171.700958,56.157890 
z"/>
<path fill="#DE8C1A" opacity="1.000000" stroke="none" 
	d="
M92.999184,240.968079 
	C92.533295,240.949661 92.067398,240.931229 91.250145,240.904083 
	C89.215767,237.951752 90.521156,236.253387 93.630569,235.154755 
	C96.710869,236.110718 99.447746,237.075592 101.611023,237.838242 
	C99.450684,238.540085 96.766685,239.412064 94.025101,240.615189 
	C93.967522,240.946350 93.982407,240.974731 93.733337,240.969162 
	C93.484268,240.963593 92.999184,240.968079 92.999184,240.968079 
z"/>
<path fill="#EEE7F3" opacity="1.000000" stroke="none" 
	d="
M93.267426,87.112381 
	C94.122696,81.508049 93.915276,80.739265 90.512161,77.277771 
	C90.813873,76.918739 91.115593,76.559708 91.417305,76.200676 
	C92.982697,77.573006 94.548080,78.945343 96.263840,80.663864 
	C95.743843,83.059547 95.073479,85.109039 94.138603,87.390976 
	C93.721321,87.476631 93.561569,87.337852 93.267426,87.112381 
z"/>
<path fill="#9170AF" opacity="1.000000" stroke="none" 
	d="
M104.969818,390.961670 
	C107.345284,390.618225 109.720749,390.274811 112.555878,390.348450 
	C112.499123,391.549042 111.982697,392.332489 111.474663,393.073853 
	C111.483055,393.031708 111.565277,392.994629 111.158463,393.036926 
	C109.493774,393.390076 108.235901,393.700928 106.704666,394.026489 
	C105.969116,393.776733 105.506920,393.512238 105.071503,392.937744 
	C105.060204,392.423767 105.022118,392.219849 105.155640,391.941956 
	C105.208107,391.565918 105.088959,391.263794 104.969818,390.961670 
z"/>
<path fill="#AC95C4" opacity="1.000000" stroke="none" 
	d="
M86.328018,344.605164 
	C88.104927,343.430878 90.163658,342.219208 92.222382,341.007538 
	C92.460533,341.649170 92.698677,342.290802 92.936829,342.932434 
	C90.827827,343.477570 88.718834,344.022675 86.328018,344.605164 
z"/>
<path fill="#E2D5E6" opacity="1.000000" stroke="none" 
	d="
M113.011513,396.093506 
	C112.839134,396.060120 112.666748,396.026733 111.790207,395.994629 
	C109.334465,395.982971 107.526848,395.697327 105.848694,396.041992 
	C104.467010,396.325775 103.238808,397.356842 101.969604,398.059113 
	C101.996643,398.061493 101.990974,398.007629 101.990974,398.007629 
	C101.679428,396.924377 101.367874,395.841095 101.301956,394.403992 
	C101.547585,394.050171 101.892334,394.028900 102.171387,394.354736 
	C106.667229,394.463226 110.884010,394.245941 115.292084,394.025818 
	C115.483376,394.023010 115.865807,394.035187 115.865807,394.035187 
	C115.925751,394.469635 115.985687,394.904053 115.723175,395.719849 
	C115.207611,396.104584 115.014496,396.108002 114.521988,396.054810 
	C113.818893,396.029968 113.415207,396.061737 113.011513,396.093506 
z"/>
<path fill="#714491" opacity="1.000000" stroke="none" 
	d="
M125.514603,340.464905 
	C126.902992,340.279694 128.283325,340.369568 129.663651,340.459442 
	C129.512451,341.158813 129.361237,341.858215 129.210022,342.557587 
	C127.975533,341.951721 126.741043,341.345886 125.514603,340.464905 
z"/>
<path fill="#64358C" opacity="1.000000" stroke="none" 
	d="
M64.769135,137.026337 
	C66.139809,137.397980 67.229469,137.775162 68.681213,138.248779 
	C67.628510,138.768967 66.161850,139.655319 64.811569,139.503876 
	C62.964001,139.296661 61.699345,138.241226 64.769135,137.026337 
z"/>
<path fill="#AC95C4" opacity="1.000000" stroke="none" 
	d="
M109.856270,399.213806 
	C110.520523,399.315521 111.184769,399.417267 112.284706,399.325867 
	C112.720390,399.132782 112.691277,398.998840 112.691269,398.998840 
	C111.972260,400.060516 111.253242,401.122162 110.261093,401.860657 
	C109.980682,401.288269 109.973396,401.039032 109.918655,400.212280 
	C109.871216,399.634827 109.856270,399.213806 109.856270,399.213806 
z"/>
<path fill="#C8B8D6" opacity="1.000000" stroke="none" 
	d="
M113.010910,399.228149 
	C112.691277,398.998840 112.720390,399.132782 112.752625,399.135773 
	C112.701508,398.912048 112.597427,398.690094 112.543770,398.456573 
	C112.517952,398.344086 112.587181,398.209808 113.107986,397.930969 
	C114.008858,397.221466 114.415123,396.666443 114.821381,396.111389 
	C115.014496,396.108002 115.207611,396.104584 115.685501,396.047913 
	C115.090370,397.148926 114.210457,398.303192 113.010910,399.228149 
z"/>
<path fill="#C8B8D6" opacity="1.000000" stroke="none" 
	d="
M105.058228,397.570007 
	C104.619232,398.609436 104.180244,399.648895 103.416214,400.795929 
	C103.091164,400.903534 103.050964,400.945984 102.976326,400.701721 
	C102.633987,400.248383 102.366280,400.039276 102.098579,399.830200 
	C102.019913,399.424774 101.941246,399.019348 101.926781,398.310791 
	C101.990974,398.007629 101.996643,398.061493 102.253067,397.895935 
	C103.364708,397.631378 104.219940,397.532410 105.102753,397.471527 
	C105.130341,397.509613 105.058228,397.570007 105.058228,397.570007 
z"/>
<path fill="#C8B8D6" opacity="1.000000" stroke="none" 
	d="
M111.466270,393.115967 
	C111.982697,392.332489 112.499123,391.549042 113.019958,390.396820 
	C113.755402,390.697052 114.486443,391.366028 115.179504,392.446564 
	C115.141518,392.858124 114.966972,393.032745 114.532593,393.036255 
	C113.220901,393.065155 112.343590,393.090546 111.466270,393.115967 
z"/>
<path fill="#C8B8D6" opacity="1.000000" stroke="none" 
	d="
M104.984039,392.015900 
	C105.022118,392.219849 105.060204,392.423767 104.707756,392.867889 
	C103.582619,393.111145 102.848015,393.114197 102.033173,393.037567 
	C101.952942,392.957855 101.791679,392.799194 101.791679,392.799194 
	C102.555504,391.983002 103.319336,391.166779 104.128769,390.901703 
	C104.444267,391.640503 104.714157,391.828186 104.984039,392.015900 
z"/>
<path fill="#C8B8D6" opacity="1.000000" stroke="none" 
	d="
M147.987946,339.521088 
	C147.625549,340.799225 147.072510,341.841614 146.519455,342.883972 
	C146.212204,342.665405 145.904953,342.446838 145.597702,342.228271 
	C146.330902,341.247284 147.064087,340.266296 147.987946,339.521088 
z"/>
<path fill="#E89E21" opacity="1.000000" stroke="none" 
	d="
M96.796478,247.345978 
	C97.717857,247.601929 98.634224,248.045441 99.731705,248.749237 
	C99.063789,248.766373 98.214752,248.523209 97.086533,248.094238 
	C96.807350,247.908401 96.791473,247.533524 96.796478,247.345978 
z"/>
<path fill="#E2D1C2" opacity="1.000000" stroke="none" 
	d="
M69.178627,125.054169 
	C68.875847,124.971550 68.602280,124.831764 68.190529,124.474792 
	C69.568932,124.282990 71.114731,124.251198 73.003708,124.401054 
	C73.346886,124.582703 73.074883,124.913048 72.577309,125.033813 
	C71.112701,125.121109 70.145660,125.087639 69.178627,125.054169 
z"/>
<path fill="#AC95C4" opacity="1.000000" stroke="none" 
	d="
M191.850739,342.889435 
	C191.878143,343.065094 191.905563,343.240784 191.913651,343.682526 
	C191.410660,343.392609 190.927017,342.836670 190.789978,342.272247 
	C191.300888,342.556549 191.538940,342.765106 191.850739,342.889435 
z"/>
<path fill="#C8B8D6" opacity="1.000000" stroke="none" 
	d="
M184.316162,354.520386 
	C184.505539,354.906586 184.428650,355.410217 184.351746,355.913818 
	C184.080811,355.841339 183.809860,355.768890 183.538940,355.696411 
	C183.709259,355.343567 183.879593,354.990692 184.316162,354.520386 
z"/>
<path fill="#602F8C" opacity="1.000000" stroke="none" 
	d="
M105.155647,391.941956 
	C104.714157,391.828186 104.444267,391.640503 104.264954,391.214478 
	C104.355522,390.976105 104.784508,390.945831 104.877167,390.953735 
	C105.088959,391.263794 105.208107,391.565918 105.155647,391.941956 
z"/>
<path fill="#E2D1C2" opacity="1.000000" stroke="none" 
	d="
M100.346703,130.604324 
	C99.914604,130.125687 99.763092,129.751663 99.611580,129.377625 
	C99.898407,129.300705 100.185242,129.223801 100.472076,129.146881 
	C100.523811,129.667557 100.575546,130.188248 100.346703,130.604324 
z"/>
<path fill="#E2D5E6" opacity="1.000000" stroke="none" 
	d="
M191.932663,342.511658 
	C191.538940,342.765106 191.300888,342.556549 190.995377,342.068176 
	C191.049881,341.295959 191.245621,340.719330 191.728226,340.025665 
	C192.014923,340.650360 192.014755,341.392120 191.932663,342.511658 
z"/>
<path fill="#E2D1C2" opacity="1.000000" stroke="none" 
	d="
M65.848717,126.405289 
	C65.976593,126.592300 66.148582,127.099319 66.217819,127.800201 
	C66.040977,127.571144 65.966904,127.148216 65.848717,126.405289 
z"/>
<path fill="#714491" opacity="1.000000" stroke="none" 
	d="
M102.231911,400.044159 
	C102.366280,400.039276 102.633987,400.248383 103.004761,400.697205 
	C102.860306,400.710663 102.612778,400.484375 102.231911,400.044159 
z"/>
<path fill="#E2D5E6" opacity="1.000000" stroke="none" 
	d="
M192.699570,339.059753 
	C192.827759,339.398651 192.684525,339.785248 192.226776,340.102051 
	C192.084229,339.723938 192.256180,339.415680 192.699570,339.059753 
z"/>
<path fill="#64358C" opacity="1.000000" stroke="none" 
	d="
M71.370804,138.621887 
	C71.483246,138.521133 71.815399,138.515991 72.345573,138.690216 
	C72.218597,138.864609 71.900902,138.813904 71.370804,138.621887 
z"/>
<path fill="#EEAF29" opacity="1.000000" stroke="none" 
	d="
M141.053894,274.228760 
	C141.286087,274.271790 141.483521,274.549866 141.799164,275.057800 
	C141.745972,275.262665 141.574585,275.237640 141.182953,275.074158 
	C140.962677,274.935669 141.019165,274.463806 141.053894,274.228760 
z"/>
<path fill="#C8B8D6" opacity="1.000000" stroke="none" 
	d="
M115.885330,393.773743 
	C115.865807,394.035187 115.483376,394.023010 115.224190,393.781464 
	C114.965660,393.370850 114.966316,393.201782 114.966972,393.032745 
	C114.966972,393.032745 115.141518,392.858124 115.230072,392.769409 
	C115.514046,392.957886 115.709450,393.235077 115.885330,393.773743 
z"/>
<path fill="#E89E21" opacity="1.000000" stroke="none" 
	d="
M127.417412,235.222748 
	C127.273590,235.034332 127.408157,234.744339 127.728958,234.285385 
	C127.800842,234.432205 127.727715,234.767136 127.417412,235.222748 
z"/>
<path fill="#EEC03E" opacity="1.000000" stroke="none" 
	d="
M142.806458,189.103271 
	C142.875076,189.311295 142.649582,189.550232 142.173950,189.881073 
	C142.159363,189.730515 142.355545,189.450928 142.806458,189.103271 
z"/>
<path fill="#C8B8D6" opacity="1.000000" stroke="none" 
	d="
M101.892334,394.028900 
	C101.892334,394.028900 101.547585,394.050171 101.374908,394.047852 
	C101.259315,393.725098 101.316406,393.404694 101.582581,392.941742 
	C101.791679,392.799194 101.952942,392.957855 102.011581,393.273254 
	C102.070221,393.588684 101.892334,394.028900 101.892334,394.028900 
z"/>
<path fill="#EEAF29" opacity="1.000000" stroke="none" 
	d="
M141.940536,275.297577 
	C142.148041,275.216522 142.406479,275.419739 142.845734,275.794800 
	C142.684738,275.834290 142.339706,275.706024 141.940536,275.297577 
z"/>
<path fill="#5A2688" opacity="1.000000" stroke="none" 
	d="
M112.981140,155.931580 
	C113.796532,155.791733 114.381363,155.748322 114.966202,155.704910 
	C115.017807,156.084457 115.069412,156.464005 115.121025,156.843552 
	C114.101509,156.953217 113.081993,157.062866 112.062469,157.172516 
	C112.291847,156.791016 112.521217,156.409515 112.981140,155.931580 
z"/>
<path fill="#F2CB3E" opacity="1.000000" stroke="none" 
	d="
M113.724442,251.946075 
	C115.124107,252.626862 116.253609,253.250488 117.748062,253.812836 
	C116.650177,256.553711 115.187347,259.355896 113.392159,262.325989 
	C109.923851,260.322784 106.787895,258.151672 104.309105,256.435516 
	C106.744392,255.224792 110.099335,253.556870 113.724442,251.946075 
z"/>
<path fill="#E89E21" opacity="1.000000" stroke="none" 
	d="
M101.347839,248.799133 
	C101.812157,247.968307 102.584793,247.076080 103.661575,246.101471 
	C103.195862,246.925308 102.426010,247.831512 101.347839,248.799133 
z"/>
<path fill="#EEAF29" opacity="1.000000" stroke="none" 
	d="
M142.999039,271.485168 
	C142.567413,272.115631 142.038376,272.427246 141.233307,272.870117 
	C139.524170,270.590027 138.017654,268.216614 136.731339,265.729309 
	C136.520996,265.322601 137.281815,264.413696 137.829437,263.846283 
	C139.677277,266.359222 141.289444,268.762787 142.999039,271.485168 
z"/>
<path fill="#E89E21" opacity="1.000000" stroke="none" 
	d="
M145.996887,268.001648 
	C145.475388,267.206970 144.957748,266.409973 144.440109,265.612976 
	C144.646347,265.495789 144.852585,265.378571 145.058823,265.261383 
	C145.366867,265.982574 145.674911,266.703735 145.996338,267.707581 
	C146.009735,267.990234 146.000763,267.999298 145.996887,268.001648 
z"/>
<path fill="#E89E21" opacity="1.000000" stroke="none" 
	d="
M150.223785,262.170197 
	C150.332214,262.170074 150.546738,262.376801 150.870743,262.787781 
	C150.759613,262.791534 150.542831,262.586548 150.223785,262.170197 
z"/>
<path fill="#5A2688" opacity="1.000000" stroke="none" 
	d="
M173.440735,134.863632 
	C173.388611,135.292053 173.201050,135.597168 173.013504,135.902283 
	C172.901550,135.801514 172.679840,135.633881 172.694305,135.610092 
	C172.878220,135.308136 173.096069,135.026855 173.440735,134.863632 
z"/>
<path fill="#5A2688" opacity="1.000000" stroke="none" 
	d="
M168.737183,133.216583 
	C168.832291,133.011795 169.013992,132.902649 169.195679,132.793488 
	C169.071701,132.966400 168.947723,133.139313 168.737183,133.216583 
z"/>
<path fill="#5A2688" opacity="1.000000" stroke="none" 
	d="
M169.494781,130.533966 
	C169.468033,130.545197 169.521515,130.522751 169.494781,130.533966 
z"/>
<path fill="#EEAF29" opacity="1.000000" stroke="none" 
	d="
M135.043732,260.961304 
	C134.795135,260.683624 134.691010,260.433594 134.586899,260.183533 
	C134.835693,260.206879 135.084488,260.230194 135.333282,260.253540 
	C135.284927,260.498657 135.236588,260.743805 135.043732,260.961304 
z"/>
<path fill="#ECA526" opacity="1.000000" stroke="none" 
	d="
M124.501900,270.493774 
	C124.506920,270.512604 124.496880,270.474945 124.501900,270.493774 
z"/>
<path fill="#F2CB3E" opacity="1.000000" stroke="none" 
	d="
M117.976135,238.559799 
	C117.479202,238.783554 117.037659,238.739792 116.071327,238.439911 
	C114.001465,237.141266 112.456390,236.098770 110.911308,235.056274 
	C110.737473,234.063782 110.563629,233.071304 110.921295,231.895447 
	C111.974426,231.461395 112.496063,231.210693 113.017685,230.959991 
	C113.543816,231.805099 114.069946,232.650208 114.792191,233.718597 
	C116.002701,235.392014 117.017113,236.842148 117.976135,238.559799 
z"/>
<path fill="#EAAB26" opacity="1.000000" stroke="none" 
	d="
M118.510620,232.483185 
	C118.520805,232.508179 118.500435,232.458206 118.510620,232.483185 
z"/>
<path fill="#F2B82E" opacity="1.000000" stroke="none" 
	d="
M110.825539,235.298782 
	C112.456390,236.098770 114.001465,237.141266 115.740524,238.396973 
	C115.327286,239.882736 114.720078,241.155289 113.689560,242.669678 
	C112.501526,242.587097 111.736809,242.262680 110.972099,241.938263 
	C110.063347,240.748505 109.154579,239.558746 107.894310,237.908813 
	C108.461090,237.437225 109.600426,236.489258 110.825539,235.298782 
z"/>
<path fill="#F2CB3E" opacity="1.000000" stroke="none" 
	d="
M110.601669,241.783600 
	C111.736809,242.262680 112.501526,242.587097 113.562698,242.994019 
	C112.946503,243.470917 111.992256,244.272964 111.128853,244.184845 
	C108.301949,243.896378 105.508095,243.284027 102.355743,242.862411 
	C101.588333,242.906036 101.166725,242.883423 100.431808,242.843475 
	C103.489426,242.427078 106.860336,242.028015 110.601669,241.783600 
z"/>
<path fill="#EDB92C" opacity="1.000000" stroke="none" 
	d="
M113.010429,230.736511 
	C112.496063,231.210693 111.974426,231.461395 111.177208,231.803650 
	C110.901619,231.895218 110.942375,231.509476 110.977066,231.024872 
	C111.023315,230.346588 111.034882,230.152924 111.046440,229.959274 
	C111.480881,229.976028 111.915314,229.992783 112.674767,230.037720 
	C112.999779,230.065887 113.003166,230.513046 113.010429,230.736511 
z"/>
<path fill="#EDB92C" opacity="1.000000" stroke="none" 
	d="
M105.058258,230.962646 
	C105.100822,230.923279 105.257881,231.148010 105.257881,231.148010 
	C105.257881,231.148010 105.040627,231.184692 104.988068,231.135223 
	C104.935516,231.085754 105.015701,231.001999 105.058258,230.962646 
z"/>
<path fill="#F2CB3E" opacity="1.000000" stroke="none" 
	d="
M110.692429,229.947083 
	C111.034882,230.152924 111.023315,230.346588 111.002441,230.832581 
	C110.684929,230.874237 110.376732,230.623535 109.849411,230.164520 
	C109.866333,229.949081 110.102371,229.941971 110.692429,229.947083 
z"/>
<path fill="#5A2688" opacity="1.000000" stroke="none" 
	d="
M214.032303,336.710754 
	C214.105057,336.901917 214.059509,337.088593 214.013947,337.275299 
	C213.980652,337.085632 213.947327,336.895935 214.032303,336.710754 
z"/>
<path fill="#5A2688" opacity="1.000000" stroke="none" 
	d="
M202.504150,340.491638 
	C202.511566,340.512238 202.496719,340.471069 202.504150,340.491638 
z"/>
<path fill="#EDB92C" opacity="1.000000" stroke="none" 
	d="
M148.716721,194.031647 
	C147.847214,196.195190 146.711105,198.415680 145.288086,200.822083 
	C144.375519,198.876389 143.749863,196.744812 143.063553,194.307907 
	C144.818619,194.031265 146.634369,194.059952 148.716721,194.031647 
z"/>
<path fill="#EDB92C" opacity="1.000000" stroke="none" 
	d="
M141.726349,192.179413 
	C142.244049,192.476166 142.494370,192.984650 142.870483,193.746552 
	C142.228256,195.457275 141.460266,196.914581 140.692276,198.371872 
	C140.172653,198.159485 139.653015,197.947113 139.133392,197.734741 
	C139.908600,195.953537 140.683792,194.172333 141.726349,192.179413 
z"/>
<path fill="#EDB92C" opacity="1.000000" stroke="none" 
	d="
M144.707367,201.047073 
	C144.792618,201.522781 144.577286,202.047958 144.186768,202.799316 
	C142.544022,202.830185 141.076447,202.634872 139.608887,202.439575 
	C139.633041,201.991898 139.657181,201.544220 139.681335,201.096542 
	C141.256485,201.096542 142.831619,201.096542 144.707367,201.047073 
z"/>
<path fill="#3E1824" opacity="1.000000" stroke="none" 
	d="
M119.927437,251.426086 
	C123.558380,251.311035 127.222054,251.530273 131.086945,251.951721 
	C130.109818,253.361847 128.977982,255.528244 127.743950,255.588120 
	C124.706566,255.735474 120.981300,256.157715 119.927437,251.426086 
z"/>
<path fill="#ECA526" opacity="1.000000" stroke="none" 
	d="
M117.928848,273.349548 
	C118.070099,273.200012 118.053085,273.495422 118.032471,273.947784 
	C118.011047,274.601898 118.010254,274.803619 118.009453,275.005371 
	C118.009453,275.005371 118.001884,275.003235 118.005798,275.012268 
	C117.935669,274.513916 117.861633,274.006500 117.928848,273.349548 
z"/>
<path fill="#5A2688" opacity="1.000000" stroke="none" 
	d="
M70.856812,160.857849 
	C70.985641,159.441727 71.086212,157.996338 71.186790,156.550964 
	C72.229988,158.048462 75.470016,159.378265 71.250626,160.948517 
	C70.772743,160.769394 70.828568,160.828568 70.856812,160.857849 
z"/>
<path fill="#F2B82E" opacity="1.000000" stroke="none" 
	d="
M118.100830,274.869843 
	C118.010254,274.803619 118.011047,274.601898 118.022247,274.095337 
	C118.237144,274.085663 118.290337,274.400269 118.100830,274.869843 
z"/>
<path fill="#64358C" opacity="1.000000" stroke="none" 
	d="
M69.090393,125.487564 
	C70.145660,125.087639 71.112701,125.121109 72.440506,125.198334 
	C75.870018,127.879250 77.009811,131.262329 75.056976,134.768723 
	C74.341843,136.052795 71.704041,136.266083 69.546036,136.865356 
	C69.057777,136.072800 68.966820,135.382736 68.879196,134.096863 
	C68.845062,133.331512 68.807571,133.161987 68.770088,132.992477 
	C68.847443,130.635300 68.924797,128.278122 69.090393,125.487564 
z"/>
<path fill="#E89E21" opacity="1.000000" stroke="none" 
	d="
M93.112007,241.044418 
	C92.999184,240.968079 93.484268,240.963593 93.726601,240.968567 
	C93.968933,240.973557 93.615677,241.159348 93.615677,241.159348 
	C93.615677,241.159348 93.224831,241.120758 93.112007,241.044418 
z"/>
<path fill="#E2D1C2" opacity="1.000000" stroke="none" 
	d="
M68.691757,133.108337 
	C68.807571,133.161987 68.845062,133.331512 68.820572,133.753983 
	C68.571793,133.772034 68.523399,133.511124 68.691757,133.108337 
z"/>
<path fill="#64358C" opacity="1.000000" stroke="none" 
	d="
M105.075165,397.433411 
	C104.219940,397.532410 103.364708,397.631378 102.226028,397.893555 
	C103.238808,397.356842 104.467010,396.325775 105.848694,396.041992 
	C107.526848,395.697327 109.334465,395.982971 111.531815,396.045654 
	C111.806885,396.317780 111.614281,396.519196 110.807587,396.858917 
	C108.502007,397.156616 106.788589,397.295013 105.075165,397.433411 
z"/>
<path fill="#E2D5E6" opacity="1.000000" stroke="none" 
	d="
M105.102753,397.471497 
	C106.788589,397.295013 108.502007,397.156616 110.649017,396.995697 
	C109.330078,397.272644 107.577553,397.572113 105.441620,397.720764 
	C105.058228,397.570007 105.130341,397.509613 105.102753,397.471497 
z"/>
<path fill="#64358C" opacity="1.000000" stroke="none" 
	d="
M114.521988,396.054810 
	C114.415123,396.666443 114.008858,397.221466 113.312866,397.730896 
	C113.015068,397.331573 113.006996,396.977875 113.005219,396.358826 
	C113.415207,396.061737 113.818893,396.029968 114.521988,396.054810 
z"/>
<path fill="#E2D5E6" opacity="1.000000" stroke="none" 
	d="
M109.564560,399.161072 
	C109.856270,399.213806 109.871216,399.634827 109.924911,399.838318 
	C109.241837,399.978058 108.505058,399.914307 107.768288,399.850586 
	C107.759308,399.694672 107.750336,399.538757 107.741356,399.382874 
	C108.251854,399.291351 108.762344,399.199829 109.564560,399.161072 
z"/>
<path fill="#6C408F" opacity="1.000000" stroke="none" 
	d="
M102.171387,394.354736 
	C101.892334,394.028900 102.070221,393.588684 102.091812,393.352966 
	C102.848015,393.114197 103.582619,393.111145 104.680969,393.177917 
	C105.506920,393.512238 105.969116,393.776733 107.109039,394.026367 
	C109.046265,393.672516 110.305771,393.333588 111.565277,392.994629 
	C111.565277,392.994629 111.483055,393.031708 111.474663,393.073822 
	C112.343590,393.090546 113.220901,393.065155 114.532593,393.036255 
	C114.966316,393.201782 114.965660,393.370850 115.032898,393.784271 
	C110.884010,394.245941 106.667229,394.463226 102.171387,394.354736 
z"/>
<path fill="#C8B8D6" opacity="1.000000" stroke="none" 
	d="
M111.158463,393.036926 
	C110.305771,393.333588 109.046265,393.672516 107.382393,394.011627 
	C108.235901,393.700928 109.493774,393.390076 111.158463,393.036926 
z"/>
</svg>